<svg width="259" height="174" viewBox="0 0 259 174" fill="none" xmlns="http://www.w3.org/2000/svg">
  <path d="M141.137 13.9658L146.636 19.951V106.404L141.748 98.4239L141.137 13.9658Z" fill="#FEC601"/>
  <path d="M146.636 19.9507H210.178V106.404H146.636V19.9507Z" fill="#CDA7FE"/>
  <path d="M210.178 19.9507L204.997 14.6305H140.526L145.707 19.9507H210.178Z" fill="white"/>
  <path d="M190.626 0L197.347 5.98521L202.846 0V17.2906H190.626V0Z" fill="#5CBDED"/>
  <rect x="41.4219" y="61.1826" width="168.756" height="105.074" fill="#59BAE7"/>
  <path d="M38.9673 61.1826H194.836L170.039 114.553H0L38.9673 61.1826Z" fill="#32D3CD"/>
  <path d="M55.4157 89.7409C56.3647 88.5571 57.7998 87.8682 59.3171 87.8682H101.338C105.438 87.8682 107.795 92.5299 105.365 95.8316L104.133 97.5065C103.191 98.787 101.696 99.543 100.106 99.543H57.9745C53.7797 99.543 51.4496 94.6888 54.0732 91.4158L55.4157 89.7409Z" fill="white"/>
  <rect width="51.807" height="65.9678" transform="matrix(0.938404 0.345541 -0.296803 0.954939 210.206 93.1035)" fill="#989898"/>
  <line y1="-0.5" x2="52.0799" y2="-0.5" transform="matrix(-0.296803 0.954939 -0.938404 -0.345541 232.453 108.686)" stroke="#DEDEDE"/>
  <line y1="-0.5" x2="35.6173" y2="-0.5" transform="matrix(0.938404 0.345541 -0.296803 0.954939 211.619 115.794)" stroke="#DEDEDE"/>
  <line y1="-0.5" x2="35.6173" y2="-0.5" transform="matrix(0.938404 0.345541 -0.296803 0.954939 207.497 129.056)" stroke="#DEDEDE"/>
  <line y1="-0.5" x2="35.6173" y2="-0.5" transform="matrix(0.938404 0.345541 -0.296803 0.954939 203.375 142.318)" stroke="#DEDEDE"/>
  <rect width="12.9518" height="5.20799" rx="2.60399" transform="matrix(0.938404 0.345541 -0.296803 0.954939 216.23 106.406)" fill="#D9D9D9"/>
  <rect width="12.9518" height="5.20799" rx="2.60399" transform="matrix(0.938404 0.345541 -0.296803 0.954939 235.98 113.679)" fill="#5CBDED"/>
  <rect width="12.9518" height="5.20798" rx="2.60399" transform="matrix(0.938404 0.345541 -0.296803 0.954939 231.858 126.941)" fill="#6AC7F2"/>
  <rect width="12.9518" height="5.20798" rx="2.60399" transform="matrix(0.938404 0.345541 -0.296803 0.954939 227.736 140.203)" fill="#D9D9D9"/>
  <rect width="12.9518" height="5.20798" rx="2.60399" transform="matrix(0.938404 0.345541 -0.296803 0.954939 223.614 153.466)" fill="#D9D9D9"/>
  <rect width="12.9518" height="5.20798" rx="2.60399" transform="matrix(0.938404 0.345541 -0.296803 0.954939 203.864 146.193)" fill="#D9D9D9"/>
  <rect width="12.9518" height="5.20798" rx="2.60399" transform="matrix(0.938404 0.345541 -0.296803 0.954939 207.986 132.931)" fill="#D9D9D9"/>
  <rect width="12.9518" height="5.20798" rx="2.60399" transform="matrix(0.938404 0.345541 -0.296803 0.954939 212.108 119.669)" fill="#D9D9D9"/>
  </svg>
  