<svg width="36" height="32" viewBox="0 0 36 32" fill="none" xmlns="http://www.w3.org/2000/svg">
<path d="M25.3582 11.4111H4.79797L14.7961 2.52416C15.2801 2.09402 15.3237 1.35304 14.8935 0.869087C14.4633 0.385255 13.7225 0.341485 13.2385 0.771713L0.985353 11.6631C0.713458 11.8778 0.538696 12.2101 0.538696 12.5835C0.538696 12.584 0.538736 12.5845 0.538736 12.585C0.538736 12.5855 0.538696 12.586 0.538696 12.5865C0.538696 12.605 0.539296 12.6235 0.540175 12.6419C0.540215 12.6425 0.540215 12.6432 0.540215 12.6438C0.555565 12.9575 0.696189 13.253 0.932189 13.4627L13.2384 24.4013C13.4618 24.5999 13.7398 24.6974 14.0168 24.6974C14.34 24.6974 14.6619 24.5645 14.8934 24.3039C15.3236 23.82 15.28 23.079 14.7961 22.6489L4.79105 13.7557H25.3582C29.6246 13.7557 33.0955 17.2266 33.0955 21.493C33.0955 25.7594 29.6246 29.2303 25.3582 29.2303H11.8408C11.1934 29.2303 10.6685 29.7552 10.6685 30.4027C10.6685 31.0501 11.1934 31.575 11.8408 31.575H25.3582C30.9175 31.575 35.4402 27.0522 35.4402 21.493C35.4402 15.9338 30.9174 11.4111 25.3582 11.4111Z" fill="black"/>
</svg>
