<svg width="18" height="29" viewBox="0 0 18 29" fill="none" xmlns="http://www.w3.org/2000/svg">
<path d="M10.5517 18.9C10.5517 18.2571 10.418 17.6464 10.1508 17.0679C9.88349 16.4893 9.52326 15.9911 9.07008 15.5732C8.61689 15.1554 8.08236 14.8232 7.46649 14.5768C6.85062 14.3304 6.19408 14.2071 5.49687 14.2071C4.79966 14.2071 4.13731 14.3304 3.50982 14.5768C2.88233 14.8232 2.34199 15.1554 1.8888 15.5732C1.43561 15.9911 1.07539 16.4893 0.808124 17.0679C0.540859 17.6464 0.407227 18.2571 0.407227 18.9C0.407227 19.5429 0.540859 20.1482 0.808124 20.7161C1.07539 21.2839 1.43561 21.7768 1.8888 22.1946C2.34199 22.6125 2.88233 22.9446 3.50982 23.1911C4.13731 23.4375 4.79966 23.5607 5.49687 23.5607C6.19408 23.5607 6.85062 23.4375 7.46649 23.1911C8.08236 22.9446 8.61689 22.6125 9.07008 22.1946C9.52326 21.7768 9.88349 21.2839 10.1508 20.7161C10.418 20.1482 10.5517 19.5429 10.5517 18.9ZM17.1054 25.2964C17.1054 24.825 17.0067 24.375 16.8091 23.9464C16.6116 23.5179 16.3385 23.1482 15.9899 22.8375C15.6413 22.5268 15.2346 22.2804 14.7698 22.0982C14.305 21.9161 13.8169 21.825 13.3056 21.825C12.7711 21.825 12.2772 21.9161 11.8241 22.0982C11.3709 22.2804 10.9758 22.5268 10.6388 22.8375C10.3018 23.1482 10.0346 23.5179 9.83701 23.9464C9.63947 24.375 9.54069 24.825 9.54069 25.2964C9.54069 25.7893 9.63947 26.2446 9.83701 26.6625C10.0346 27.0804 10.3018 27.45 10.6388 27.7714C10.9758 28.0929 11.3709 28.3446 11.8241 28.5268C12.2772 28.7089 12.7711 28.8 13.3056 28.8C13.8169 28.8 14.305 28.7089 14.7698 28.5268C15.2346 28.3446 15.6413 28.0929 15.9899 27.7714C16.3385 27.45 16.6116 27.0804 16.8091 26.6625C17.0067 26.2446 17.1054 25.7893 17.1054 25.2964ZM10.6214 13.4357C9.59879 13.4357 8.64594 13.2589 7.76281 12.9054C6.87967 12.5518 6.10693 12.0696 5.44458 11.4589C4.78223 10.8482 4.25932 10.1357 3.87585 9.32143C3.49239 8.50714 3.30065 7.63929 3.30065 6.71786C3.30065 5.79643 3.49239 4.92321 3.87585 4.09821C4.25932 3.27321 4.78223 2.56071 5.44458 1.96071C6.10693 1.36071 6.87967 0.883929 7.76281 0.530357C8.64594 0.176786 9.59879 0 10.6214 0C11.6207 0 12.5619 0.176786 13.4451 0.530357C14.3282 0.883929 15.101 1.36071 15.7633 1.96071C16.4257 2.56071 16.9486 3.27321 17.332 4.09821C17.7155 4.92321 17.9072 5.79643 17.9072 6.71786C17.9072 7.63929 17.7155 8.50714 17.332 9.32143C16.9486 10.1357 16.4257 10.8482 15.7633 11.4589C15.101 12.0696 14.3282 12.5518 13.4451 12.9054C12.5619 13.2589 11.6207 13.4357 10.6214 13.4357ZM6.85643 3.72857C6.46134 3.72857 6.12436 3.85714 5.84547 4.11429C5.56659 4.37143 5.42715 4.68214 5.42715 5.04643C5.42715 5.41071 5.56659 5.72143 5.84547 5.97857C6.12436 6.23571 6.46134 6.36429 6.85643 6.36429C7.25152 6.36429 7.5885 6.23571 7.86739 5.97857C8.14627 5.72143 8.28571 5.41071 8.28571 5.04643C8.28571 4.68214 8.14627 4.37143 7.86739 4.11429C7.5885 3.85714 7.25152 3.72857 6.85643 3.72857Z" fill="white"/>
</svg>
