<svg width="18" height="29" viewBox="0 0 18 29" fill="none" xmlns="http://www.w3.org/2000/svg">
<path d="M10.2743 18.9C10.2743 18.2571 10.1407 17.6464 9.87341 17.0679C9.60615 16.4893 9.24592 15.9911 8.79273 15.5732C8.33955 15.1554 7.80502 14.8232 7.18915 14.5768C6.57328 14.3304 5.91674 14.2071 5.21953 14.2071C4.52231 14.2071 3.85996 14.3304 3.23247 14.5768C2.60498 14.8232 2.06464 15.1554 1.61146 15.5732C1.15827 15.9911 0.798044 16.4893 0.53078 17.0679C0.263516 17.6464 0.129883 18.2571 0.129883 18.9C0.129883 19.5429 0.263516 20.1482 0.53078 20.7161C0.798044 21.2839 1.15827 21.7768 1.61146 22.1946C2.06464 22.6125 2.60498 22.9446 3.23247 23.1911C3.85996 23.4375 4.52231 23.5607 5.21953 23.5607C5.91674 23.5607 6.57328 23.4375 7.18915 23.1911C7.80502 22.9446 8.33955 22.6125 8.79273 22.1946C9.24592 21.7768 9.60615 21.2839 9.87341 20.7161C10.1407 20.1482 10.2743 19.5429 10.2743 18.9ZM16.8281 25.2964C16.8281 24.825 16.7293 24.375 16.5318 23.9464C16.3342 23.5179 16.0612 23.1482 15.7126 22.8375C15.3639 22.5268 14.9572 22.2804 14.4924 22.0982C14.0276 21.9161 13.5396 21.825 13.0283 21.825C12.4938 21.825 11.9999 21.9161 11.5467 22.0982C11.0935 22.2804 10.6984 22.5268 10.3615 22.8375C10.0245 23.1482 9.75721 23.5179 9.55967 23.9464C9.36212 24.375 9.26335 24.825 9.26335 25.2964C9.26335 25.7893 9.36212 26.2446 9.55967 26.6625C9.75721 27.0804 10.0245 27.45 10.3615 27.7714C10.6984 28.0929 11.0935 28.3446 11.5467 28.5268C11.9999 28.7089 12.4938 28.8 13.0283 28.8C13.5396 28.8 14.0276 28.7089 14.4924 28.5268C14.9572 28.3446 15.3639 28.0929 15.7126 27.7714C16.0612 27.45 16.3342 27.0804 16.5318 26.6625C16.7293 26.2446 16.8281 25.7893 16.8281 25.2964ZM10.344 13.4357C9.32145 13.4357 8.3686 13.2589 7.48546 12.9054C6.60233 12.5518 5.82959 12.0696 5.16723 11.4589C4.50488 10.8482 3.98198 10.1357 3.59851 9.32143C3.21504 8.50714 3.02331 7.63929 3.02331 6.71786C3.02331 5.79643 3.21504 4.92321 3.59851 4.09821C3.98198 3.27321 4.50488 2.56071 5.16723 1.96071C5.82959 1.36071 6.60233 0.883929 7.48546 0.530357C8.3686 0.176786 9.32145 0 10.344 0C11.3434 0 12.2846 0.176786 13.1677 0.530357C14.0509 0.883929 14.8236 1.36071 15.486 1.96071C16.1483 2.56071 16.6712 3.27321 17.0547 4.09821C17.4382 4.92321 17.6299 5.79643 17.6299 6.71786C17.6299 7.63929 17.4382 8.50714 17.0547 9.32143C16.6712 10.1357 16.1483 10.8482 15.486 11.4589C14.8236 12.0696 14.0509 12.5518 13.1677 12.9054C12.2846 13.2589 11.3434 13.4357 10.344 13.4357ZM6.57909 3.72857C6.184 3.72857 5.84702 3.85714 5.56813 4.11429C5.28925 4.37143 5.1498 4.68214 5.1498 5.04643C5.1498 5.41071 5.28925 5.72143 5.56813 5.97857C5.84702 6.23571 6.184 6.36429 6.57909 6.36429C6.97417 6.36429 7.31116 6.23571 7.59004 5.97857C7.86893 5.72143 8.00837 5.41071 8.00837 5.04643C8.00837 4.68214 7.86893 4.37143 7.59004 4.11429C7.31116 3.85714 6.97417 3.72857 6.57909 3.72857Z" fill="#C9C9C9"/>
</svg>
