<svg width="14" height="16" viewBox="0 0 14 16" fill="none" xmlns="http://www.w3.org/2000/svg">
<path fill-rule="evenodd" clip-rule="evenodd" d="M3 0C2.44771 0 2 0.447708 2 1V2C0.895432 2 0 2.89543 0 4V14C0 15.1046 0.895432 16 2 16H12C13.1046 16 14 15.1046 14 14V4C14 2.89543 13.1046 2 12 2V1C12 0.447708 11.5523 0 11 0C10.4477 0 10 0.447708 10 1V2H4V1C4 0.447708 3.55229 0 3 0ZM4 14V12H2V14H4ZM4 8V10H2V8H4ZM8 12H6V14H8V12ZM6 8H8V10H6V8ZM12 14V12H10V14H12ZM12 8V10H10V8H12ZM3 4C2.44771 4 2 4.44771 2 5V6H12V5C12 4.44771 11.5523 4 11 4H3Z" fill="#C59BF9"/>
</svg>
