<svg width="53" height="50" viewBox="0 0 53 50" fill="none" xmlns="http://www.w3.org/2000/svg">
  <path d="M25.7652 25.818C22.6423 18.3899 10.391 1.94198 23.8432 0.122834C36.9229 -1.64594 29.0482 16.116 25.7652 25.818Z" fill="#FF9120"/>
  <path d="M24.9137 24.9622C31.1801 19.4126 42.9806 2.44116 50.0438 13.5583C56.9114 24.3677 35.9612 24.1742 24.9137 24.9622Z" fill="#FF9120"/>
  <path d="M24.8459 23.5674C33.3442 25.2627 55.2282 24.8199 49.1398 36.4154C43.22 47.6898 31.7152 31.571 24.8459 23.5674Z" fill="#FF9120"/>
  <path d="M26.0524 23.166C27.6859 31.0282 36.6985 49.3912 22.724 48.7751C9.13653 48.176 20.7425 32.1189 26.0524 23.166Z" fill="#FF9120"/>
  <path d="M28.6067 24.033C21.1658 28.175 5.59278 42.3354 1.36449 30.0587C-2.74671 18.122 17.6421 22.5606 28.6067 24.033Z" fill="#FF9120"/>
  <ellipse cx="26.0796" cy="24.1523" rx="5.8889" ry="4.99703" fill="#FBC706"/>
  </svg>
  