<svg width="109" height="102" viewBox="0 0 109 102" fill="none" xmlns="http://www.w3.org/2000/svg">
<rect width="109" height="102" rx="20" fill="#32D3CD"/>
<path d="M51.3966 46.4595L47.0223 37H71L56.419 49.2973V62.0676L65.9777 70.2658L56.419 72L42 68.3739L47.0223 66.6396L51.3966 53.2387V46.4595Z" fill="white"/>
<path d="M55.5625 33.7143C54.6583 31.2831 49.3733 30.2251 46.8438 30L42 33.7143L46.8438 36.4156L55.5625 43L64.6042 39.1169L73 36.4156L67.5104 33.7143H62.8281C60.783 34.7273 56.4667 36.1455 55.5625 33.7143Z" fill="#F25536"/>
<path d="M39 69H44.4329L60.0732 70.0435H66V72H42.2927L39 69Z" fill="#F25536"/>
<ellipse cx="53" cy="53" rx="1" ry="2" fill="#05AF71"/>
<ellipse cx="55" cy="53.5" rx="1" ry="1.5" fill="#05AF71"/>
<path d="M59.6122 16C56.9369 20.725 56.8255 31.9688 57.1041 37C58.8877 35.5234 62.555 31.9141 62.9563 29.2891C63.3576 26.6641 60.8941 19.3359 59.6122 16Z" fill="#05AF71"/>
</svg>
