<svg width="109" height="102" viewBox="0 0 109 102" fill="none" xmlns="http://www.w3.org/2000/svg">
<rect width="109" height="102" rx="20" fill="#66D548"/>
<rect x="21" y="16" width="45" height="53" fill="#7B7A7F"/>
<line x1="44" y1="21.5791" x2="44" y2="63.4212" stroke="#A5A5A5"/>
<line x1="28.0312" y1="32.2368" x2="58.9688" y2="32.2368" stroke="#A5A5A5"/>
<line x1="28.0312" y1="43.3945" x2="58.9688" y2="43.3945" stroke="#A5A5A5"/>
<line x1="28.0312" y1="54.5527" x2="58.9688" y2="54.5527" stroke="#A5A5A5"/>
<rect x="29.4375" y="24.3687" width="11.25" height="4.18421" rx="2.09211" fill="#D9D9D9"/>
<rect x="47.7188" y="24.3687" width="11.25" height="4.18421" rx="2.09211" fill="#05AF71"/>
<rect x="47.7188" y="35.5264" width="11.25" height="4.18421" rx="2.0921" fill="#6EDA53"/>
<rect x="47.7188" y="46.6841" width="11.25" height="4.18421" rx="2.0921" fill="#D9D9D9"/>
<rect x="47.7188" y="57.8423" width="11.25" height="4.18421" rx="2.09211" fill="#D9D9D9"/>
<rect x="29.4375" y="57.8423" width="11.25" height="4.18421" rx="2.09211" fill="#D9D9D9"/>
<rect x="29.4375" y="46.6841" width="11.25" height="4.18421" rx="2.0921" fill="#D9D9D9"/>
<rect x="29.4375" y="35.5264" width="11.25" height="4.18421" rx="2.0921" fill="#D9D9D9"/>
<circle cx="78" cy="67" r="18" fill="#CDA7FE"/>
<path d="M73.219 60.624C74.341 60.624 75.259 60.913 75.956 61.508C76.636 62.103 76.976 62.902 76.976 63.888C76.976 65.282 76.313 66.2 75.004 66.642C75.701 66.863 76.245 67.22 76.636 67.713C77.027 68.206 77.231 68.801 77.231 69.515C77.231 70.603 76.84 71.504 76.092 72.201C75.327 72.881 74.341 73.238 73.134 73.238C72.046 73.238 71.145 72.949 70.431 72.388C69.547 71.708 69.071 70.671 68.969 69.311H70.023C70.074 70.348 70.431 71.13 71.111 71.674C71.655 72.116 72.318 72.337 73.117 72.337C74.052 72.337 74.8 72.065 75.378 71.538C75.922 71.011 76.194 70.348 76.194 69.549C76.194 68.784 75.922 68.189 75.412 67.747C74.902 67.305 74.222 67.101 73.355 67.101H72.284V66.251H73.253C74.12 66.251 74.783 66.047 75.259 65.656C75.701 65.248 75.939 64.687 75.939 63.939C75.939 63.225 75.701 62.647 75.242 62.205C74.749 61.763 74.069 61.542 73.219 61.542C72.369 61.542 71.689 61.78 71.196 62.273C70.686 62.749 70.38 63.412 70.278 64.296H69.241C69.343 63.157 69.768 62.256 70.499 61.593C71.196 60.947 72.097 60.624 73.219 60.624ZM83.2934 60.624C84.7554 60.624 85.8434 61.287 86.5574 62.63C87.1354 63.701 87.4414 65.129 87.4414 66.931C87.4414 68.716 87.1354 70.144 86.5574 71.232C85.8434 72.558 84.7554 73.238 83.2934 73.238C81.8314 73.238 80.7434 72.558 80.0294 71.232C79.4344 70.144 79.1454 68.716 79.1454 66.931C79.1454 65.129 79.4344 63.701 80.0294 62.63C80.7434 61.287 81.8314 60.624 83.2934 60.624ZM83.2934 61.542C82.1204 61.542 81.2704 62.137 80.7604 63.344C80.3864 64.228 80.1994 65.435 80.1994 66.931C80.1994 68.427 80.3864 69.617 80.7604 70.518C81.2704 71.708 82.1204 72.32 83.2934 72.32C84.4494 72.32 85.2994 71.708 85.8264 70.518C86.2004 69.617 86.4044 68.427 86.4044 66.931C86.4044 65.435 86.2004 64.228 85.8264 63.344C85.2994 62.137 84.4494 61.542 83.2934 61.542Z" fill="black"/>
</svg>
