<svg width="336" height="82" viewBox="0 0 336 82" fill="none" xmlns="http://www.w3.org/2000/svg">
  <style>
    path {
    fill: black;
    }
    @media (prefers-color-scheme: dark) {
    path { fill: white; }
    }
  </style>
  <path
    d="M261.498 66.262H272.53V67.55H270.29V70.91H273.244V72.198H270.29V78.26H268.96V72.198H265.208C265.068 73.598 264.802 74.76 264.382 75.698C263.85 76.874 262.954 77.784 261.708 78.414L260.994 77.294C262.114 76.636 262.884 75.796 263.29 74.788C263.556 74.06 263.738 73.192 263.85 72.198H260.77V70.91H263.948C263.948 70.798 263.962 70.686 263.962 70.602V67.55H261.498V66.262ZM265.306 67.55V70.602C265.306 70.714 265.292 70.812 265.292 70.91H268.96V67.55H265.306ZM276.142 65.436L277.444 65.548C277.332 66.444 277.22 67.298 277.108 68.082H279.096V68.824C279.012 71.064 278.648 72.996 278.004 74.648C278.62 75.292 279.138 75.88 279.53 76.398L278.634 77.448C278.284 76.972 277.878 76.482 277.402 75.95C276.87 76.93 276.212 77.784 275.428 78.512L274.588 77.462C275.372 76.762 276.002 75.922 276.492 74.97C275.946 74.41 275.358 73.822 274.714 73.206C275.022 72.03 275.316 70.742 275.568 69.356H274.588V68.082H275.778C275.904 67.228 276.03 66.346 276.142 65.436ZM277.052 73.682C277.5 72.408 277.78 70.966 277.864 69.356H276.898C276.66 70.728 276.408 71.89 276.142 72.814C276.464 73.122 276.772 73.402 277.052 73.682ZM286.46 72.31V78.456H285.186V77.672H281.35V78.456H280.09V72.31H286.46ZM281.35 76.426H285.186V73.528H281.35V76.426ZM279.614 71.288L279.404 70.084C280.09 69.86 281.056 68.334 282.302 65.492L283.562 65.912C282.806 67.536 282.05 68.908 281.266 70C282.61 69.916 283.912 69.776 285.172 69.58C284.836 68.88 284.486 68.236 284.15 67.634L285.284 67.088C286.012 68.306 286.684 69.65 287.328 71.12L286.11 71.708C285.97 71.344 285.83 71.008 285.69 70.7C283.87 70.952 281.84 71.148 279.614 71.288ZM300.502 65.632L301.146 66.808C299.942 67.228 298.612 67.48 297.156 67.578V69.846H301.482V71.12H300.138V78.456H298.836V71.12H297.156V72.534C297.086 74.998 296.54 76.958 295.518 78.428L294.58 77.42C295.378 76.244 295.812 74.62 295.868 72.534V66.486C297.59 66.458 299.13 66.164 300.502 65.632ZM288.812 66.626H291.304C291.136 66.262 290.94 65.912 290.73 65.59L292.102 65.366C292.27 65.744 292.452 66.164 292.62 66.626H295.21V67.858H288.812V66.626ZM288.672 69.804H290.156C289.974 69.314 289.764 68.852 289.526 68.432L290.688 67.998C290.912 68.502 291.136 69.104 291.332 69.804H292.662C292.886 69.216 293.082 68.614 293.25 67.984L294.44 68.404C294.272 68.922 294.076 69.384 293.866 69.804H295.294V71.022H292.704V72.282H295.056V73.486H292.704V77.238C292.704 78.078 292.242 78.498 291.318 78.498H290.59L290.296 77.266C290.506 77.322 290.702 77.35 290.884 77.35C291.22 77.35 291.388 77.21 291.388 76.93V73.486H288.896V72.282H291.388V71.022H288.672V69.804ZM289.736 74.102L290.94 74.354C290.604 75.768 290.142 77 289.526 78.05L288.434 77.35C289.05 76.342 289.484 75.25 289.736 74.102ZM294.118 74.004C294.482 74.9 294.776 75.712 294.986 76.44L293.866 76.86C293.642 75.992 293.362 75.138 293.026 74.298L294.118 74.004ZM305.5 69.272C304.94 70.532 304.24 71.582 303.386 72.422L302.518 71.316C303.778 69.986 304.632 68.194 305.08 65.94L306.438 66.178C306.298 66.822 306.144 67.424 305.976 67.984H308.58V65.632H309.91V67.984H314.404V69.272H309.91V72.17H314.124V73.458H309.91V76.65H315.3V77.966H302.882V76.65H308.58V73.458H304.576V72.17H308.58V69.272H305.5ZM320.256 69.496H324.134V67.606C323.126 67.69 322.062 67.746 320.928 67.746L320.508 66.556C323.546 66.556 326.094 66.22 328.166 65.548L328.824 66.668C327.858 67.004 326.752 67.27 325.492 67.452V69.496H329.398V70.77H325.492V72.59H328.572V78.428H327.256V77.756H322.482V78.442H321.152V72.59H324.134V70.77H320.256V69.496ZM322.482 76.51H327.256V73.836H322.482V76.51ZM317.89 65.66C318.814 66.262 319.612 66.878 320.27 67.494L319.36 68.39C318.8 67.816 318.002 67.186 316.98 66.514L317.89 65.66ZM317.568 68.992C318.52 69.678 319.332 70.364 319.976 71.05L319.052 71.974C318.478 71.33 317.666 70.644 316.63 69.902L317.568 68.992ZM318.926 72.758L320.144 73.234C319.556 75.026 318.898 76.706 318.198 78.274L316.868 77.686C317.666 76.076 318.352 74.438 318.926 72.758Z"
    fill="black" />
  <path
    d="M124.24 9.6H127.16C127.16 15.8 126.84 21.2 126.2 25.8C129.32 29.12 131.92 32.44 134.08 35.72L131.92 37.92C130.32 35.12 128.2 32.2 125.64 29.12C124.4 35.84 121.64 41.32 117.32 45.64L115.32 43.2C119.08 39.32 121.6 34.44 122.8 28.56C123.76 23.6 124.24 17.28 124.24 9.6ZM139.88 9.56H142.76C142.76 13.56 142.6 17.28 142.32 20.64C144.24 30.16 147.68 37.64 152.56 43.12L150.48 45.6C146.56 40.76 143.56 34.8 141.48 27.72C141.4 28.12 141.36 28.52 141.28 28.92C140 35.8 137.04 41.44 132.48 45.88L130.48 43.44C134.44 39.52 137.08 34.6 138.36 28.68C139.32 23.68 139.84 17.32 139.88 9.56ZM165.72 12.68V39.2H159.72V42.76H157.16V12.68H165.72ZM159.72 36.72H163.2V15.24H159.72V36.72ZM167.6 20.16H170.32V13.72H167.72V11.16H178.72C178.72 26.76 178.56 36.36 178.24 39.96C177.92 43.64 176.56 45.48 174.16 45.48C173.68 45.48 172.88 45.4 171.72 45.32L171.12 42.84C172.08 42.92 172.96 42.96 173.72 42.96C174.88 42.96 175.56 41.72 175.8 39.32C175.88 38.04 176 35.56 176.08 31.84H172.2C171.4 37.76 169.76 42.32 167.32 45.6L165.32 43.88C167.48 41 168.96 36.96 169.72 31.84H167.52V29.28H170C170.16 27.36 170.28 25.32 170.32 23.2V22.72H167.6V20.16ZM176.12 29.28C176.12 27.32 176.12 25.12 176.16 22.72H172.76V23.2C172.72 25.36 172.64 27.4 172.48 29.28H176.12ZM176.16 20.16C176.16 18.16 176.16 16 176.2 13.72H172.76V20.16H176.16ZM181.56 11.04H191.48V13.16C190.84 16.72 190.04 20.48 189.08 24.4C190.88 28.32 191.84 31.72 191.96 34.6C191.96 36.64 191.64 38.08 191.04 38.88C190.08 40 188.48 40.56 186.24 40.6L185.36 37.92C186.24 38 187 38.04 187.64 38.04C188.24 37.92 188.68 37.64 189 37.24C189.24 36.68 189.4 35.8 189.4 34.6C189.4 31.68 188.44 28.4 186.52 24.76C187.56 20.64 188.36 16.88 188.92 13.52H184.12V45.92H181.56V11.04ZM198.48 11.72H229.64V14.52H222.96V25.12H231.72V27.88H222.96V45.6H220.04V27.88H208.48C208.12 32 207.36 35.4 206.16 38.12C204.64 41.48 202.12 44.08 198.6 45.92L197.04 43.44C200.28 41.6 202.56 39.16 203.84 36.12C204.68 33.8 205.24 31.08 205.56 27.88H196.32V25.12H205.72C205.72 24.6 205.76 24.12 205.76 23.72V14.52H198.48V11.72ZM208.72 14.52V23.72C208.72 24.2 208.68 24.68 208.68 25.12H220.04V14.52H208.72ZM240.56 9.16L243.4 9.4C243.04 12.12 242.68 14.64 242.32 16.96H248.24V18.64C247.92 25.12 246.8 30.68 244.88 35.4C246.76 37.36 248.32 39.12 249.52 40.72L247.6 42.96C246.48 41.48 245.16 39.88 243.6 38.2C242 41.24 240.04 43.88 237.64 46.12L235.84 43.84C238.2 41.68 240.12 39.12 241.64 36.08C240.04 34.44 238.32 32.76 236.48 31C237.44 27.52 238.28 23.76 239 19.72H235.8V16.96H239.48C239.88 14.44 240.24 11.84 240.56 9.16ZM242.84 33.32C244.36 29.32 245.24 24.8 245.52 19.72H241.88C241.12 23.92 240.36 27.4 239.56 30.16C240.72 31.24 241.8 32.28 242.84 33.32ZM269.36 29V46.04H266.6V43.64H254.36V46.04H251.6V29H269.36ZM254.36 40.92H266.6V31.64H254.36V40.92ZM250.04 25.4L249.6 22.8C251.92 21.6 254.8 17.12 258.24 9.28L260.96 10.2C258.56 15.4 256.2 19.52 253.8 22.6C258.28 22.32 262.56 21.84 266.6 21.2C265.48 19 264.36 16.96 263.2 15.12L265.68 13.92C267.88 17.44 269.96 21.28 271.88 25.48L269.2 26.76C268.72 25.68 268.28 24.64 267.8 23.64C262.48 24.4 256.56 25 250.04 25.4ZM291.4 20.88H299.32V23.36H291.4V20.88ZM291.64 26.56H299.4V38.36H291.64V26.56ZM297.24 36.2V28.72H293.8V36.2H297.24ZM308.36 20.84L310.8 21.88C309.6 27.48 307.92 32.24 305.8 36.08C306.12 37.44 306.48 38.6 306.88 39.6C307.76 41.68 308.56 42.8 309.28 42.88C309.8 42.84 310.12 40.44 310.2 35.68L312.56 36.76C312.52 42.68 311.48 45.68 309.48 45.68C308.08 45.68 306.8 44.56 305.6 42.36C305.04 41.4 304.56 40.2 304.12 38.76C302.04 41.72 299.64 44.04 296.92 45.68L295.2 43.48C298.4 41.64 301.04 38.92 303.2 35.4C302.8 33.84 302.48 32.12 302.16 30.28C301.48 26.2 301.04 21.92 300.8 17.4H289.4V28.52C289.24 35.76 287.72 41.56 284.8 45.92L282.68 44.04C285.32 40.32 286.68 35.16 286.8 28.52V14.72H300.64C300.56 12.92 300.56 11.12 300.56 9.32H303.24C303.24 11.12 303.28 12.92 303.36 14.72H307.44C306.8 13.28 306.08 11.96 305.28 10.76L307.64 10.36C308.36 11.64 309.04 13.12 309.68 14.72H311.6V17.4H303.48C303.64 20.92 303.92 24.44 304.36 28C304.52 29.44 304.72 30.8 304.96 32.04C306.4 28.8 307.56 25.08 308.36 20.84ZM278.32 10.96C280.84 14.32 282.76 17.28 284.08 19.8L281.8 21.4C280.36 18.72 278.44 15.72 275.96 12.44L278.32 10.96ZM282.16 27.32L284.64 28.32C282.8 34.24 280.72 39.8 278.48 45L275.8 43.8C278.24 38.44 280.36 32.92 282.16 27.32ZM325.08 12.88C327.64 12.88 329.72 13.56 331.24 15C332.72 16.36 333.48 18.24 333.48 20.64C333.48 22.44 332.96 24 332 25.32C331.6 25.8 330.48 26.84 328.72 28.4C327.88 29.12 327.28 29.84 326.88 30.56C326.36 31.44 326.12 32.44 326.12 33.52V34.44H322.88V33.52C322.88 32.2 323.12 31.04 323.64 30.04C324.16 28.84 325.52 27.32 327.68 25.4C328.32 24.76 328.76 24.28 329.04 23.96C329.8 22.96 330.2 21.92 330.2 20.8C330.2 19.2 329.76 17.96 328.88 17.08C327.92 16.12 326.6 15.68 324.92 15.68C322.96 15.68 321.48 16.32 320.48 17.64C319.64 18.76 319.2 20.28 319.2 22.24H316C316 19.44 316.8 17.2 318.36 15.52C320 13.76 322.24 12.88 325.08 12.88ZM324.52 37.24C325.2 37.24 325.76 37.44 326.24 37.92C326.68 38.36 326.92 38.92 326.92 39.6C326.92 40.32 326.68 40.88 326.24 41.32C325.76 41.76 325.16 42 324.52 42C323.8 42 323.24 41.76 322.8 41.32C322.32 40.84 322.08 40.28 322.08 39.6C322.08 38.92 322.32 38.36 322.8 37.92C323.24 37.44 323.8 37.24 324.52 37.24Z"
    fill="black" />
  <path
    d="M0.646454 71.6464C0.451187 71.8417 0.451187 72.1583 0.646454 72.3536L3.82843 75.5355C4.0237 75.7308 4.34027 75.7308 4.53554 75.5355C4.73079 75.3403 4.73079 75.0237 4.53554 74.8284L1.70711 72L4.53554 69.1716C4.73079 68.9763 4.73079 68.6597 4.53554 68.4645C4.34027 68.2692 4.0237 68.2692 3.82843 68.4645L0.646454 71.6464ZM248 71.5L1 71.5V72.5L248 72.5V71.5Z"
    fill="black" />
</svg>