<svg width="109" height="102" viewBox="0 0 109 102" fill="none" xmlns="http://www.w3.org/2000/svg">
<rect width="109" height="102" rx="20" fill="#FEC601"/>
<path d="M45.4366 22H26V58.7714H36.1408V88H77.5493V58.7714H86V22H67.4084C59.4578 30.3496 54.716 31.2101 45.4366 22Z" fill="#32D3CD"/>
<path d="M43.0662 44.9835C43.6078 44.3588 44.3939 44 45.2207 44H66.7062C69.0943 44 70.4247 46.7597 68.9374 48.628C68.3963 49.3077 67.5749 49.7037 66.7062 49.7037H45.2207C42.7765 49.7037 41.4648 46.8301 43.0662 44.9835Z" fill="#C79CF8"/>
<path d="M41.5448 32.9381C44.3025 30.1804 47.2299 28.6955 50.4543 28.5258C53.5939 28.3561 56.4789 29.544 59.0245 32.0896C61.1034 34.1685 62.2913 36.4595 62.6307 38.8354C62.7156 39.6839 62.6307 41.9749 62.3337 45.7509C62.2489 47.1934 62.3762 48.5086 62.758 49.6541C63.1398 50.9693 63.8611 52.1149 64.9217 53.1755L65.643 53.8968L61.1034 58.4364L60.3821 57.7151C58.8123 56.1454 57.7092 54.5332 57.1577 52.8785C56.5637 51.0966 56.4365 47.7449 56.7334 42.781L56.6486 41.2537C56.4365 39.5142 55.8001 38.1141 54.697 37.0111C53.2121 35.5261 51.6423 34.8049 49.9876 34.7625C48.2906 34.7625 46.6784 35.5261 45.151 37.0535C43.2418 38.9627 42.4357 40.9567 42.7752 42.9932C43.0297 44.7751 44.1328 46.6419 45.9996 48.5086L41.5024 53.0058C38.4052 49.9087 36.8779 46.5994 36.9203 42.9932C36.8779 39.3869 38.4477 36.0352 41.5448 32.9381ZM65.643 58.4788C66.5339 57.5879 67.5522 57.0787 68.7401 57.0787C69.8856 57.0363 70.9039 57.4606 71.7948 58.3515C72.6858 59.2425 73.11 60.2607 73.11 61.4487C73.0252 62.6366 72.5585 63.6973 71.71 64.5458C70.819 65.4368 69.8008 65.861 68.6553 65.8186C67.4249 65.861 66.4067 65.4368 65.5581 64.5882C64.6672 63.6973 64.2429 62.679 64.3278 61.4911C64.2853 60.3456 64.752 59.3698 65.643 58.4788Z" fill="black"/>
</svg>
