<svg width="45" height="46" viewBox="0 0 45 46" fill="none" xmlns="http://www.w3.org/2000/svg">
  <path d="M6.10352e-05 23.6621C6.10352e-05 20.9007 2.23864 18.6621 5.00006 18.6621H40.0001C42.7615 18.6621 45.0001 20.9007 45.0001 23.6621C45.0001 26.4235 42.7615 28.6621 40.0001 28.6621H5.00006C2.23864 28.6621 6.10352e-05 26.4235 6.10352e-05 23.6621Z" fill="white"/>
  <path d="M22.0001 45.6621C19.2386 45.6621 17.0001 43.4235 17.0001 40.6621V5.66211C17.0001 2.90069 19.2386 0.662109 22.0001 0.662109C24.7615 0.662109 27.0001 2.90069 27.0001 5.66211V40.6621C27.0001 43.4235 24.7615 45.6621 22.0001 45.6621Z" fill="white"/>
  </svg>
  