<svg width="152" height="56" viewBox="0 0 152 56" fill="none" xmlns="http://www.w3.org/2000/svg">
<path d="M13.0816 0.839999L14.7136 1.176C13.8256 5.112 12.2416 8.76 10.2256 11.136C9.93763 10.872 9.21763 10.344 8.83363 10.104C10.8496 7.944 12.2656 4.488 13.0816 0.839999ZM21.3616 4.872H23.0656C23.0656 4.872 23.0656 5.544 23.0416 5.808C22.4896 16.752 21.9856 20.52 21.0016 21.696C20.5216 22.344 20.0656 22.56 19.3216 22.632C18.6976 22.728 17.6416 22.704 16.5856 22.632C16.5376 22.104 16.3696 21.336 16.0816 20.856C17.1616 20.952 18.1456 20.976 18.6016 20.976C18.9856 20.976 19.2256 20.88 19.5136 20.568C20.3056 19.656 20.8576 15.84 21.3616 5.304V4.872ZM12.9136 4.872H22.0816V6.576H12.1456L12.9136 4.872ZM15.3376 5.4L16.7056 6.096C15.6736 10.344 13.3936 15.144 10.6576 17.52C10.2976 17.16 9.72163 16.728 9.24163 16.464C12.0496 14.256 14.3536 9.6 15.3376 5.4ZM18.7696 5.544L20.2096 6.216C19.0096 12.672 16.3216 19.296 12.2896 22.536C11.9296 22.152 11.2816 21.696 10.7536 21.432C14.9536 18.432 17.6176 11.928 18.7696 5.544ZM1.10563 14.16C3.36163 13.584 6.79363 12.576 10.0576 11.592L10.2976 13.176C7.24963 14.136 4.00963 15.144 1.58563 15.912L1.10563 14.16ZM5.59363 0.863999H7.27363V22.92H5.59363V0.863999ZM2.61763 2.232L4.17763 2.496C3.81763 5.688 3.21763 8.928 2.30563 11.064C2.01763 10.848 1.32163 10.44 0.937625 10.272C1.84962 8.232 2.32963 5.184 2.61763 2.232ZM2.76163 5.76H9.74563V7.512H2.47363L2.76163 5.76ZM36.1936 6H54.2656V7.632H36.1936V6ZM44.4496 3.024L46.3456 3.12C46.1296 5.52 45.7696 8.592 45.4576 10.464H43.7056C43.9936 8.544 44.2816 5.376 44.4496 3.024ZM45.6976 19.344L46.9936 18.264C49.3696 19.152 52.3936 20.592 54.0736 21.552L52.8016 22.776C51.1456 21.768 48.1456 20.256 45.6976 19.344ZM51.4096 0.959999L52.8256 2.4C48.2896 3.408 41.1616 3.96 35.2576 4.176C35.2096 3.72 34.9936 3.024 34.8256 2.616C40.6096 2.4 47.6176 1.824 51.4096 0.959999ZM34.8256 2.616H36.5776V9.336C36.5776 13.224 36.2656 18.864 33.8896 22.656C33.5536 22.368 32.7616 21.888 32.3296 21.72C34.6096 18.12 34.8256 13.008 34.8256 9.336V2.616ZM44.4496 12.648H46.3216V14.856C46.3216 17.304 45.4816 20.64 37.7296 22.92C37.5136 22.512 36.9616 21.864 36.5296 21.528C43.9696 19.584 44.4496 16.728 44.4496 14.808V12.648ZM38.4256 9.984H52.4176V18.36H50.5456V11.664H40.2256V18.264H38.4256V9.984ZM63.8896 6H72.6256V7.728H63.8896V6ZM67.6336 0.839999H69.3616V22.896H67.6336V0.839999ZM67.5376 7.056L68.6896 7.464C67.8736 11.328 66.1216 16.032 64.2736 18.432C64.0816 17.952 63.6256 17.232 63.3136 16.824C65.0416 14.664 66.7936 10.512 67.5376 7.056ZM69.1936 9.696C69.8176 10.368 72.1696 13.272 72.6976 13.968L71.5936 15.432C70.9696 14.232 69.0736 11.52 68.2816 10.56L69.1936 9.696ZM72.1936 2.136H81.7936V3.816H72.1936V2.136ZM81.1936 2.136H81.4096L81.6976 2.064L82.9216 2.232C82.6336 4.416 82.1536 7.368 81.6976 9.624L80.0176 9.432C80.4736 7.176 81.0016 3.984 81.1936 2.352V2.136ZM74.4736 9.024H84.0736V10.656H74.1616L74.4736 9.024ZM83.4496 9.024H83.7616L84.0976 8.976L85.2256 9.36C83.6896 16.536 79.5856 20.832 74.6416 22.944C74.4256 22.512 73.9456 21.864 73.5616 21.504C78.1216 19.8 82.1056 15.552 83.4496 9.36V9.024ZM74.0416 2.784L75.7936 2.808C75.6496 11.808 75.1216 18.336 71.7616 22.968C71.4496 22.68 70.6576 22.08 70.2256 21.84C73.5616 17.712 74.0176 11.16 74.0416 2.784ZM76.2736 10.152C77.8576 15.312 81.1456 19.632 85.9216 21.408C85.5136 21.744 84.9616 22.44 84.6976 22.92C79.8256 20.856 76.5856 16.224 74.8816 10.512L76.2736 10.152ZM101.162 8.232C100.602 8.232 100.138 8.048 99.7696 7.68C99.4176 7.312 99.2416 6.784 99.2416 6.096C99.2416 5.36 99.4496 4.632 99.8656 3.912C100.298 3.192 100.898 2.632 101.666 2.232L102.218 3.072C101.386 3.648 100.89 4.376 100.73 5.256C100.874 5.192 101.042 5.16 101.234 5.16C101.682 5.16 102.05 5.304 102.338 5.592C102.626 5.88 102.77 6.248 102.77 6.696C102.77 7.144 102.618 7.512 102.314 7.8C102.01 8.088 101.626 8.232 101.162 8.232ZM96.7456 8.232C96.1856 8.232 95.7216 8.048 95.3536 7.68C95.0016 7.312 94.8256 6.784 94.8256 6.096C94.8256 5.36 95.0336 4.632 95.4496 3.912C95.8816 3.192 96.4816 2.632 97.2496 2.232L97.8016 3.072C96.9696 3.648 96.4736 4.376 96.3136 5.256C96.4576 5.192 96.6256 5.16 96.8176 5.16C97.2656 5.16 97.6336 5.304 97.9216 5.592C98.2096 5.88 98.3536 6.248 98.3536 6.696C98.3536 7.144 98.2016 7.512 97.8976 7.8C97.5936 8.088 97.2096 8.232 96.7456 8.232ZM112.445 3.384L113.669 2.352C114.941 3.432 116.405 5.016 117.053 6.072L115.733 7.248C115.133 6.168 113.693 4.512 112.445 3.384ZM111.797 19.224C112.877 17.232 114.389 13.848 115.493 10.968L116.837 11.976C115.853 14.664 114.509 17.904 113.381 20.256L111.797 19.224ZM129.485 1.824L130.565 0.959999C131.693 1.704 132.989 2.784 133.613 3.6L132.461 4.584C131.861 3.792 130.589 2.616 129.485 1.824ZM121.733 11.688H126.389V17.952H121.733V16.536H125.141V13.08H121.733V11.688ZM126.989 0.863999H128.741C128.717 14.592 130.349 21.24 132.053 21.24C132.509 21.24 132.773 20.448 132.893 17.688C133.253 18.048 133.781 18.432 134.189 18.6C133.925 22.32 133.325 22.944 131.885 22.968C128.573 22.968 127.229 15 126.989 0.863999ZM131.453 9.264L133.061 9.6C131.429 15.816 128.357 20.16 123.677 22.872C123.437 22.584 122.813 21.96 122.429 21.648C127.109 19.224 130.013 15.072 131.453 9.264ZM118.205 4.896H119.813V10.872C119.813 14.424 119.429 19.464 116.957 22.896C116.669 22.608 115.973 22.152 115.589 21.984C117.941 18.72 118.205 14.184 118.205 10.848V4.896ZM119.021 4.896H133.637V6.552H119.021V4.896ZM120.677 8.424H126.701V9.84H120.677V8.424ZM121.061 11.688H122.285V19.032H121.061V11.688ZM148.613 8.952L148.061 8.112C148.893 7.536 149.389 6.808 149.549 5.928C149.405 5.992 149.237 6.024 149.045 6.024C148.597 6.024 148.229 5.88 147.941 5.592C147.653 5.304 147.509 4.936 147.509 4.488C147.509 4.024 147.661 3.656 147.965 3.384C148.269 3.096 148.653 2.952 149.117 2.952C149.677 2.952 150.133 3.136 150.485 3.504C150.853 3.872 151.037 4.4 151.037 5.088C151.037 5.824 150.821 6.552 150.389 7.272C149.973 7.976 149.381 8.536 148.613 8.952ZM144.197 8.952L143.645 8.112C144.477 7.536 144.973 6.808 145.133 5.928C144.989 5.992 144.821 6.024 144.629 6.024C144.181 6.024 143.813 5.88 143.525 5.592C143.237 5.304 143.093 4.936 143.093 4.488C143.093 4.024 143.245 3.656 143.549 3.384C143.853 3.096 144.237 2.952 144.701 2.952C145.261 2.952 145.717 3.136 146.069 3.504C146.437 3.872 146.621 4.4 146.621 5.088C146.621 5.824 146.405 6.552 145.973 7.272C145.557 7.976 144.965 8.536 144.197 8.952ZM38.768 33.912H40.4V55.896H38.768V33.912ZM35.36 41.904H43.088V43.608H35.36V41.904ZM38.672 42.792L39.8 43.296C39.056 46.512 37.568 50.736 36.056 52.944C35.864 52.392 35.408 51.6 35.096 51.096C36.512 49.224 38.024 45.576 38.672 42.792ZM40.352 44.064C40.952 44.76 43.064 47.856 43.52 48.624L42.32 50.016C41.816 48.768 40.136 45.792 39.464 44.76L40.352 44.064ZM35.624 35.712L36.848 35.4C37.544 37.08 38.096 39.24 38.264 40.656L36.944 40.992C36.8 39.576 36.248 37.368 35.624 35.712ZM42.272 35.304L43.784 35.688C43.184 37.464 42.464 39.72 41.84 41.064L40.736 40.704C41.264 39.288 41.936 36.936 42.272 35.304ZM44.6 35.808H56.816V37.176H44.6V35.808ZM45.2 38.664H56.288V39.984H45.2V38.664ZM43.928 41.616H57.416V43.008H43.928V41.616ZM49.64 33.864H51.368V42.384H49.64V33.864ZM45.44 44.472H54.68V45.84H47.144V55.896H45.44V44.472ZM54.128 44.472H55.832V54.072C55.832 54.936 55.664 55.392 55.016 55.656C54.392 55.896 53.384 55.896 51.896 55.896C51.8 55.464 51.584 54.84 51.368 54.408C52.448 54.432 53.432 54.432 53.744 54.432C54.056 54.432 54.128 54.336 54.128 54.072V44.472ZM46.352 47.616H54.824V48.912H46.352V47.616ZM46.352 50.712H54.824V52.008H46.352V50.712ZM76.784 42.744H87.296V44.328H76.784V42.744ZM76.736 47.496H87.56V49.128H76.736V47.496ZM81.032 33.84H82.76V55.92H81.032V33.84ZM75.872 38.016H88.136V50.04H86.432V39.648H77.552V50.16H75.872V38.016ZM66.92 38.352H74.168V40.008H66.92V38.352ZM70.208 33.864H71.96V39.168H70.208V33.864ZM72.152 43.8C72.8 44.28 75.008 46.32 75.536 46.848L74.48 48.312C73.784 47.424 71.888 45.456 71.12 44.712L72.152 43.8ZM73.52 38.352H73.904L74.216 38.28L75.224 38.928C73.568 43.296 70.16 47.328 66.968 49.56C66.8 49.104 66.344 48.264 66.032 47.952C69.032 46.008 72.176 42.36 73.52 38.736V38.352ZM70.208 45.576L71.96 43.416V55.896H70.208V45.576ZM98.024 39H106.76V40.728H98.024V39ZM101.768 33.84H103.496V55.896H101.768V33.84ZM101.672 40.056L102.824 40.464C102.008 44.328 100.256 49.032 98.408 51.432C98.216 50.952 97.76 50.232 97.448 49.824C99.176 47.664 100.928 43.512 101.672 40.056ZM103.328 42.696C103.952 43.368 106.304 46.272 106.832 46.968L105.728 48.432C105.104 47.232 103.208 44.52 102.416 43.56L103.328 42.696ZM106.328 35.136H115.928V36.816H106.328V35.136ZM115.328 35.136H115.544L115.832 35.064L117.056 35.232C116.768 37.416 116.288 40.368 115.832 42.624L114.152 42.432C114.608 40.176 115.136 36.984 115.328 35.352V35.136ZM108.608 42.024H118.208V43.656H108.296L108.608 42.024ZM117.584 42.024H117.896L118.232 41.976L119.36 42.36C117.824 49.536 113.72 53.832 108.776 55.944C108.56 55.512 108.08 54.864 107.696 54.504C112.256 52.8 116.24 48.552 117.584 42.36V42.024ZM108.176 35.784L109.928 35.808C109.784 44.808 109.256 51.336 105.896 55.968C105.584 55.68 104.792 55.08 104.36 54.84C107.696 50.712 108.152 44.16 108.176 35.784ZM110.408 43.152C111.992 48.312 115.28 52.632 120.056 54.408C119.648 54.744 119.096 55.44 118.832 55.92C113.96 53.856 110.72 49.224 109.016 43.512L110.408 43.152ZM132.512 35.952H139.832V37.464H132.512V35.952ZM141.584 35.976H150.32V37.512H141.584V35.976ZM132.944 33.792L134.648 34.224C133.76 36.72 132.224 39.12 130.64 40.656C130.304 40.368 129.584 39.888 129.152 39.672C130.784 38.256 132.152 36.072 132.944 33.792ZM142.304 33.816L144.008 34.224C143.312 36.528 142.064 38.76 140.72 40.2C140.384 39.888 139.664 39.408 139.232 39.168C140.6 37.872 141.704 35.904 142.304 33.816ZM134.312 37.104L135.824 36.552C136.472 37.536 137.216 38.928 137.504 39.768L135.92 40.416C135.656 39.528 134.96 38.136 134.312 37.104ZM144.152 37.056L145.64 36.456C146.432 37.488 147.368 38.904 147.752 39.864L146.192 40.56C145.832 39.624 144.968 38.136 144.152 37.056ZM136.4 48.144H143.672V49.464H136.4V48.144ZM130.544 43.128H132.296V55.896H130.544V43.128ZM136.4 41.112H148.616V42.72H136.4V41.112ZM131.624 41.064L132.944 40.176C133.976 41.04 135.152 42.264 135.704 43.104L134.312 44.088C133.808 43.248 132.632 41.952 131.624 41.064ZM147.68 41.112H149.432V53.76C149.432 54.768 149.216 55.248 148.496 55.512C147.776 55.776 146.6 55.8 144.776 55.776C144.704 55.32 144.464 54.648 144.2 54.192C145.544 54.24 146.84 54.24 147.176 54.216C147.56 54.192 147.68 54.096 147.68 53.76V41.112ZM137.216 46.128V51.624H142.88V46.128H137.216ZM135.656 44.712H144.488V53.016H135.656V44.712Z" fill="black" fill-opacity="0.9"/>
</svg>
